<svg width="40" height="40" viewBox="0 0 40 40" fill="none" xmlns="http://www.w3.org/2000/svg">
<circle cx="20" cy="20" r="20" fill="#F7F7F7"/>
<path d="M18.7502 28.1111L11.4169 20.7778C11.3058 20.6666 11.2269 20.5463 11.1802 20.4166C11.1343 20.287 11.1113 20.1481 11.1113 20C11.1113 19.8518 11.1343 19.7129 11.1802 19.5833C11.2269 19.4537 11.3058 19.3333 11.4169 19.2222L18.7502 11.8889C18.9539 11.6852 19.2084 11.5785 19.5135 11.5689C19.8195 11.56 20.0835 11.6666 20.3058 11.8889C20.528 12.0926 20.6439 12.347 20.6536 12.6522C20.6624 12.9581 20.5558 13.2222 20.3336 13.4444L14.8891 18.8889H27.3058C27.6206 18.8889 27.8847 18.9952 28.098 19.2078C28.3106 19.4211 28.4169 19.6852 28.4169 20C28.4169 20.3148 28.3106 20.5785 28.098 20.7911C27.8847 21.0044 27.6206 21.1111 27.3058 21.1111H14.8891L20.3336 26.5555C20.5373 26.7592 20.6439 27.0185 20.6536 27.3333C20.6624 27.6481 20.5558 27.9074 20.3336 28.1111C20.1298 28.3333 19.8706 28.4444 19.5558 28.4444C19.241 28.4444 18.9724 28.3333 18.7502 28.1111Z" fill="#7B7B7B"/>
</svg>
