<svg width="36" height="36" viewBox="0 0 36 36" fill="none" xmlns="http://www.w3.org/2000/svg">
<path d="M35.4612 22.3546C33.0568 31.9976 23.2891 37.8661 13.644 35.4615C4.00287 33.0573 -1.86631 23.2901 0.539191 13.6477C2.94245 4.00365 12.7102 -1.86548 22.3525 0.538648C31.997 2.94277 37.8656 12.7111 35.4612 22.3546Z" fill="#F7931A"/>
<path fill-rule="evenodd" clip-rule="evenodd" d="M25.9342 15.4357C26.2925 13.0405 24.4689 11.753 21.9753 10.894L22.7842 7.64954L20.8092 7.15735L20.0217 10.3163C19.5025 10.187 18.9693 10.0649 18.4394 9.94397L19.2325 6.76416L17.2587 6.27197L16.4493 9.51535C16.0195 9.41747 15.5977 9.32072 15.1882 9.21891L15.1904 9.20879L12.4668 8.52872L11.9414 10.6381C11.9414 10.6381 13.4067 10.9739 13.3758 10.9947C14.1757 11.1944 14.3202 11.7237 14.296 12.1433L13.3747 15.8395C13.4298 15.8536 13.5012 15.8738 13.58 15.9053L13.5131 15.8886C13.4673 15.8772 13.4198 15.8652 13.3713 15.8536L12.0798 21.0314C11.9819 21.2744 11.7339 21.6389 11.1747 21.5005C11.1944 21.5292 9.73923 21.1422 9.73923 21.1422L8.75879 23.4029L11.3289 24.0436C11.6159 24.1155 11.8994 24.1895 12.18 24.2626L12.1805 24.2628C12.3672 24.3115 12.5526 24.3598 12.7368 24.407L11.9195 27.6886L13.8922 28.1808L14.7016 24.934C15.2405 25.0803 15.7636 25.2153 16.2755 25.3424L15.4689 28.574L17.4438 29.0662L18.2611 25.7907C21.6288 26.428 24.1612 26.171 25.2271 23.125C26.086 20.6725 25.1844 19.2578 23.4125 18.3353C24.7029 18.0378 25.6749 17.189 25.9342 15.4357ZM21.4218 21.7632C20.8619 24.0133 17.3399 23.083 15.7284 22.6574C15.5834 22.6191 15.4539 22.5849 15.3434 22.5575L16.4279 18.2099C16.5625 18.2435 16.7268 18.2804 16.913 18.3222L16.9131 18.3222C18.5798 18.6962 21.9956 19.4626 21.4218 21.7632ZM17.248 16.3046C18.5916 16.6632 21.5222 17.4453 22.0327 15.4002C22.554 13.3085 19.7056 12.6779 18.3145 12.37C18.1581 12.3353 18.02 12.3048 17.9073 12.2767L16.924 16.2198C17.0169 16.2429 17.1259 16.272 17.248 16.3046Z" fill="white"/>
</svg>
