<svg width="14" height="13" viewBox="0 0 14 13" fill="none" xmlns="http://www.w3.org/2000/svg">
<path fill-rule="evenodd" clip-rule="evenodd" d="M4.36261 1.98215C3.86194 2.60887 3.69041 3.35304 3.69041 3.7953C3.69041 4.20536 3.72514 4.77501 3.75446 5.18349C3.76419 5.31915 3.73638 5.47728 3.6179 5.60282C3.49798 5.72988 3.33483 5.77112 3.1891 5.77112C2.97865 5.77112 2.81859 5.69413 2.71621 5.64488L2.70432 5.63917C2.59008 5.5844 2.53002 5.55892 2.44172 5.55892C2.3614 5.55892 2.26332 5.59344 2.18556 5.65636C2.10673 5.72013 2.08388 5.78256 2.08388 5.81828C2.08388 5.891 2.11071 5.94297 2.20931 6.00675C2.32576 6.08207 2.49169 6.1387 2.70921 6.21005L2.72815 6.21625C2.90879 6.27544 3.13253 6.34874 3.3091 6.4588C3.50729 6.58234 3.69041 6.78089 3.69041 7.08677C3.69041 7.16696 3.66824 7.24413 3.64743 7.30258C3.62484 7.36601 3.59432 7.43301 3.56012 7.49981C3.49158 7.6337 3.39889 7.78489 3.297 7.93532C3.09486 8.23379 2.83791 8.55655 2.62434 8.76199C2.40844 8.96969 2.08374 9.20315 1.75534 9.38528C1.58994 9.47701 1.41727 9.55928 1.25077 9.61936C1.10172 9.67315 0.94109 9.71528 0.786994 9.72186C0.783153 9.72348 0.77891 9.72541 0.774465 9.72765C0.767362 9.73122 0.760716 9.73508 0.75492 9.73898L0.751953 9.74104C0.752534 9.74519 0.7532 9.74827 0.753753 9.75043C0.754986 9.75526 0.75645 9.7587 0.75842 9.76227C0.764461 9.7732 0.773989 9.78539 0.812532 9.82668L0.822645 9.83753C0.892079 9.91223 1.06319 10.0092 1.33444 10.0959C1.59276 10.1784 1.89824 10.2381 2.18685 10.2654C2.33125 10.2791 2.41448 10.3694 2.4497 10.418C2.48596 10.468 2.5067 10.5209 2.51882 10.5559C2.54226 10.6238 2.55997 10.7074 2.57393 10.7734L2.57606 10.7834C2.59513 10.8733 2.61181 10.9501 2.63356 11.0143C2.64125 11.037 2.64835 11.0543 2.65445 11.067C2.66822 11.0686 2.68934 11.0701 2.71992 11.07C2.85263 11.0694 2.98549 11.0497 3.11698 11.0338C3.32734 11.0085 3.58766 10.9771 3.86329 10.9771C4.50253 10.9771 4.92434 11.2653 5.33181 11.5437L5.35469 11.5594C5.50547 11.6623 5.65658 11.7654 5.82652 11.8658C6.30541 12.1488 6.66978 12.1468 6.936 12.1453C6.95473 12.1452 6.97297 12.1451 6.99074 12.1451C7.00835 12.1451 7.02649 12.1452 7.04514 12.1453C7.3143 12.1467 7.69088 12.1488 8.16967 11.8658C8.3396 11.7654 8.49071 11.6623 8.6415 11.5594L8.66437 11.5437C9.07184 11.2653 9.49366 10.9771 10.1329 10.9771C10.4085 10.9771 10.6688 11.0085 10.8792 11.0338L10.8856 11.0346C11.0557 11.0551 11.1802 11.0696 11.2763 11.07C11.3068 11.0701 11.328 11.0686 11.3417 11.067C11.3478 11.0543 11.3549 11.037 11.3626 11.0143C11.3844 10.9501 11.4011 10.8733 11.4201 10.7834L11.4223 10.7734C11.4362 10.7074 11.4539 10.6238 11.4774 10.5559C11.4895 10.5209 11.5102 10.468 11.5465 10.418C11.5817 10.3694 11.6649 10.2791 11.8093 10.2654C12.0979 10.2381 12.4034 10.1784 12.6617 10.0959C12.933 10.0092 13.1041 9.91224 13.1735 9.83754L13.1836 9.82669C13.2222 9.7854 13.2317 9.7732 13.2378 9.76227C13.2397 9.7587 13.2412 9.75526 13.2424 9.75043C13.243 9.74827 13.2437 9.74519 13.2442 9.74104L13.2413 9.73898C13.2355 9.73508 13.2288 9.73122 13.2217 9.72765C13.2173 9.72541 13.213 9.72348 13.2092 9.72186C13.0551 9.71528 12.8945 9.67315 12.7454 9.61936C12.5789 9.55928 12.4062 9.47701 12.2409 9.38528C11.9124 9.20315 11.5878 8.96969 11.3718 8.76199C11.1583 8.55655 10.9013 8.23379 10.6992 7.93532C10.5973 7.78489 10.5046 7.6337 10.4361 7.49981C10.4019 7.43301 10.3713 7.36601 10.3488 7.30257C10.3279 7.24413 10.3058 7.16696 10.3058 7.08677C10.3058 6.78089 10.4889 6.58234 10.6871 6.4588C10.8637 6.34874 11.0874 6.27543 11.268 6.21625L11.287 6.21005C11.5045 6.1387 11.6704 6.08207 11.7869 6.00675C11.8855 5.94297 11.9123 5.891 11.9123 5.81828C11.9123 5.78256 11.8895 5.72013 11.8106 5.65636C11.7329 5.59344 11.6348 5.55892 11.5545 5.55892C11.4662 5.55892 11.4061 5.5844 11.2919 5.63917L11.28 5.64488C11.1776 5.69413 11.0175 5.77112 10.8071 5.77112C10.6614 5.77112 10.4982 5.72988 10.3783 5.60282C10.2598 5.47728 10.232 5.31915 10.2417 5.18349C10.271 4.77501 10.3058 4.20536 10.3058 3.7953C10.3058 3.35189 10.1373 2.60764 9.64031 1.98137C9.15484 1.36959 8.34331 0.852783 7.00545 0.852783C5.66744 0.852783 4.85185 1.36974 4.36261 1.98215Z" fill="white"/>
</svg>
