<svg width="19" height="18" viewBox="0 0 19 18" fill="none" xmlns="http://www.w3.org/2000/svg">
<path d="M2.5 0.5V3H0V4.66667H2.5V7.16667H4.16667V4.66667H6.66667V3H4.16667V0.5H2.5ZM8.33333 3V4.66667H15.8333V6.33333H10.8333C9.91667 6.33333 9.16667 7.08333 9.16667 8V13C9.16667 13.9167 9.91667 14.6667 10.8333 14.6667H15.8333V16.3333H4.16667V8.83333H2.5V16.3333C2.5 16.7754 2.67559 17.1993 2.98816 17.5118C3.30072 17.8244 3.72464 18 4.16667 18H15.8333C16.75 18 17.5 17.25 17.5 16.3333V14.4333C17.7519 14.2879 17.9614 14.0791 18.1075 13.8276C18.2537 13.5762 18.3316 13.2909 18.3333 13V8C18.3316 7.70914 18.2537 7.42381 18.1075 7.17236C17.9614 6.92091 17.7519 6.71209 17.5 6.56667V4.66667C17.5 3.75 16.75 3 15.8333 3H8.33333ZM10.8333 8H16.6667V13H10.8333V8ZM13.3333 9.25C13.0018 9.25 12.6839 9.3817 12.4495 9.61612C12.215 9.85054 12.0833 10.1685 12.0833 10.5C12.0833 10.8315 12.215 11.1495 12.4495 11.3839C12.6839 11.6183 13.0018 11.75 13.3333 11.75C13.6649 11.75 13.9828 11.6183 14.2172 11.3839C14.4516 11.1495 14.5833 10.8315 14.5833 10.5C14.5833 10.1685 14.4516 9.85054 14.2172 9.61612C13.9828 9.3817 13.6649 9.25 13.3333 9.25Z" fill="#FCFCFC"/>
</svg>
