<svg width="32" height="32" viewBox="0 0 32 32" fill="none" xmlns="http://www.w3.org/2000/svg">
<g clip-path="url(#clip0_405_8242)">
<path d="M16 0C24.837 0 32 7.163 32 16C32 24.837 24.837 32 16 32C7.163 32 0 24.837 0 16C0 7.163 7.163 0 16 0ZM7.5 7.257L15.095 26.369L25.678 13.475L21.932 9.913L7.5 7.257ZM23.752 14.234L16.082 23.578L17.065 15.445L23.752 14.235V14.234ZM9.472 9.488L16.105 14.99L15.067 23.57L9.472 9.487V9.488ZM21.7 11.083L23.908 13.182L17.87 14.275L21.7 11.083ZM10.194 8.778L20.596 10.692L16.558 14.056L10.194 8.778Z" fill="#FF0013"/>
</g>
<defs>
<clipPath id="clip0_405_8242">
<rect width="32" height="32" fill="white"/>
</clipPath>
</defs>
</svg>
