<svg width="20" height="20" viewBox="0 0 20 20" fill="none" xmlns="http://www.w3.org/2000/svg">
<path fill-rule="evenodd" clip-rule="evenodd" d="M9.92846 18.2035H3.23569C3.32661 16.874 2.64088 15.9764 0.979005 15.6214L0.914062 4.29606C2.12133 3.85245 2.87767 3.08613 3.30096 2.08301L14.4312 2.14795C14.962 3.35789 15.8532 3.96735 17.0565 4.05727L17.1651 6.63933L13.6938 6.74757L13.6285 5.05539L4.21249 5.22924L4.38601 15.1662L7.46663 15.0223C7.34141 14.6246 7.23916 14.2003 7.16057 13.7544C9.21975 12.2151 10.3597 11.3898 13.531 11.0491C13.6122 12.5928 13.4104 13.5749 14.0675 15.2184C14.8265 17.1154 17.28 18.7463 17.2713 18.7497C13.467 17.2763 13.0557 15.312 12.4316 12.1265C11.5534 12.2154 10.6758 12.4755 9.9631 12.8469C9.49085 13.093 8.43211 13.8467 8.28324 14.1364C7.81199 15.0519 9.51816 17.7486 10.1273 18.0789L10.115 18.2764C10.0517 18.2541 9.98941 18.2295 9.9278 18.2032L9.92846 18.2038V18.2035ZM8.90803 15.1841H12.3876C12.6984 16.2282 14.0009 17.2177 14.7925 18.1505H10.5782C9.76161 17.253 8.91169 16.2665 8.90803 15.1841V15.1841ZM17.668 18.5349C16.6422 16.5093 15.8882 14.4538 18.4563 10.815C18.6678 10.5156 18.9735 10.3191 19.0847 9.95641C18.1742 9.35727 17.5398 8.93298 16.2732 8.52867C15.4429 8.2639 13.6882 7.92687 12.6531 8.2256C12.4969 8.53466 12.2151 8.87803 12.1372 9.14546C13.7861 8.84639 16.8404 9.2527 17.6297 10.1586C17.5218 10.4476 17.3156 10.6998 17.1611 11.0058C16.0228 13.0184 15.3284 15.6451 17.668 18.5345V18.5349ZM17.3063 18.5302C16.7318 17.5228 15.7117 16.816 15.4206 14.3076C15.1755 12.1924 15.9285 11.3089 16.2709 10.1559C15.0676 9.43387 10.6488 9.69464 9.39427 10.837L9.26871 11.7445C10.3128 11.3179 10.8636 10.9719 12.0992 10.7554C12.9521 10.6062 14.224 10.5116 14.9107 10.7877C14.6633 11.9853 14.2383 12.6244 14.5747 14.3885C14.7076 15.0876 14.9281 15.6894 15.2458 16.2782C15.4356 16.6295 16.5779 18.0953 17.3063 18.5302V18.5302Z" fill="#FA3C12"/>
<rect x="7.58008" width="3.33333" height="3.75" fill="#FA3C12"/>
<rect x="7.58008" y="16.25" width="3.33333" height="3.75" fill="#FA3C12"/>
</svg>
