<svg width="40" height="40" viewBox="0 0 40 40" fill="none" xmlns="http://www.w3.org/2000/svg">
<circle cx="20" cy="20" r="20" fill="#F7F7F7"/>
<rect width="26.6667" height="26.6667" transform="translate(6.66602 6.66602)" fill="#F7F7F7"/>
<path d="M19.9998 8.88867C13.8553 8.88867 8.88867 13.8553 8.88867 19.9998C8.88867 26.1442 13.8553 31.1109 19.9998 31.1109C26.1442 31.1109 31.1109 26.1442 31.1109 19.9998C31.1109 13.8553 26.1442 8.88867 19.9998 8.88867ZM25.5553 23.9887L23.9887 25.5553L19.9998 21.5664L16.0109 25.5553L14.4442 23.9887L18.4331 19.9998L14.4442 16.0109L16.0109 14.4442L19.9998 18.4331L23.9887 14.4442L25.5553 16.0109L21.5664 19.9998L25.5553 23.9887Z" fill="#7B7B7B"/>
</svg>
