<svg width="36" height="36" viewBox="0 0 36 36" fill="none" xmlns="http://www.w3.org/2000/svg">
<ellipse cx="18" cy="18.0001" rx="16.0517" ry="16.0518" fill="white"/>
<path fill-rule="evenodd" clip-rule="evenodd" d="M0 18C0 8.05887 8.05884 0 17.9999 0H18.1045C22.8645 0.0138507 27.4241 1.91806 30.7801 5.29372C34.1361 8.66938 36.0137 13.24 35.9998 18C35.9998 27.9411 27.941 36 17.9999 36C8.05884 36 0 27.9411 0 18ZM16.4309 24.9298L18.305 18.6102L21.2251 17.7821L21.8353 15.6901L18.9588 16.5617L22.0096 6.18886V6.02324C22.005 5.88913 21.9474 5.76233 21.8493 5.67077C21.7512 5.57921 21.6207 5.5304 21.4866 5.53511H17.6077C17.3055 5.52579 17.0359 5.72354 16.9539 6.01453L13.3365 18.3051L10.46 19.1768L9.80625 21.1816L12.6828 20.3099L10.1113 29.0702H25.4527C25.7558 29.0828 26.0273 28.8837 26.1064 28.5908L26.9781 25.5835V25.4179C26.9735 25.2838 26.9159 25.157 26.8178 25.0654C26.7197 24.9739 26.5892 24.9251 26.4551 24.9298H16.4309Z" fill="#345D9D"/>
</svg>
