<svg width="18" height="9" viewBox="0 0 18 9" fill="none" xmlns="http://www.w3.org/2000/svg">
<path d="M8.16602 8.66634H4.83268C3.6799 8.66634 2.6974 8.25995 1.88518 7.44717C1.0724 6.63495 0.666016 5.65245 0.666016 4.49967C0.666016 3.3469 1.0724 2.36412 1.88518 1.55134C2.6974 0.739119 3.6799 0.333008 4.83268 0.333008H8.16602V1.99967H4.83268C4.13824 1.99967 3.54796 2.24273 3.06185 2.72884C2.57574 3.21495 2.33268 3.80523 2.33268 4.49967C2.33268 5.19412 2.57574 5.7844 3.06185 6.27051C3.54796 6.75662 4.13824 6.99967 4.83268 6.99967H8.16602V8.66634ZM5.66602 5.33301V3.66634H12.3327V5.33301H5.66602ZM9.83268 8.66634V6.99967H13.166C13.8605 6.99967 14.4507 6.75662 14.9368 6.27051C15.423 5.7844 15.666 5.19412 15.666 4.49967C15.666 3.80523 15.423 3.21495 14.9368 2.72884C14.4507 2.24273 13.8605 1.99967 13.166 1.99967H9.83268V0.333008H13.166C14.3188 0.333008 15.3016 0.739119 16.1143 1.55134C16.9266 2.36412 17.3327 3.3469 17.3327 4.49967C17.3327 5.65245 16.9266 6.63495 16.1143 7.44717C15.3016 8.25995 14.3188 8.66634 13.166 8.66634H9.83268Z" fill="#FED8D0"/>
</svg>
