<svg width="10" height="10" viewBox="0 0 10 10" fill="none" xmlns="http://www.w3.org/2000/svg">
<path d="M2.8866 1.55759C2.8866 2.14169 2.38032 2.61519 1.7558 2.61519C1.13128 2.61519 0.625 2.14169 0.625 1.55759C0.625 0.973501 1.13128 0.5 1.7558 0.5C2.38032 0.5 2.8866 0.973501 2.8866 1.55759Z" fill="white"/>
<path d="M0.779639 3.39256H2.71263V9.25H0.779639V3.39256Z" fill="white"/>
<path d="M5.82474 3.39256H3.89175V9.25H5.82474C5.82474 9.25 5.82474 7.40599 5.82474 6.25304C5.82474 5.56101 6.06104 4.86596 7.00387 4.86596C8.06939 4.86596 8.06297 5.77158 8.058 6.47318C8.05151 7.39028 8.06701 8.32616 8.06701 9.25H10V6.15857C9.98363 4.18461 9.46926 3.27505 7.77706 3.27505C6.77212 3.27505 6.14919 3.73129 5.82474 4.14406V3.39256Z" fill="white"/>
</svg>
