<svg width="40" height="41" viewBox="0 0 40 41" fill="none" xmlns="http://www.w3.org/2000/svg">
<circle cx="20" cy="20.5" r="20" fill="#FED8D0"/>
<path d="M18.5 24.8333H15.1667C14.0139 24.8333 13.0314 24.4269 12.2192 23.6142C11.4064 22.8019 11 21.8194 11 20.6667C11 19.5139 11.4064 18.5311 12.2192 17.7183C13.0314 16.9061 14.0139 16.5 15.1667 16.5H18.5V18.1667H15.1667C14.4722 18.1667 13.8819 18.4097 13.3958 18.8958C12.9097 19.3819 12.6667 19.9722 12.6667 20.6667C12.6667 21.3611 12.9097 21.9514 13.3958 22.4375C13.8819 22.9236 14.4722 23.1667 15.1667 23.1667H18.5V24.8333ZM16 21.5V19.8333H22.6667V21.5H16ZM20.1667 24.8333V23.1667H23.5C24.1944 23.1667 24.7847 22.9236 25.2708 22.4375C25.7569 21.9514 26 21.3611 26 20.6667C26 19.9722 25.7569 19.3819 25.2708 18.8958C24.7847 18.4097 24.1944 18.1667 23.5 18.1667H20.1667V16.5H23.5C24.6528 16.5 25.6356 16.9061 26.4483 17.7183C27.2606 18.5311 27.6667 19.5139 27.6667 20.6667C27.6667 21.8194 27.2606 22.8019 26.4483 23.6142C25.6356 24.4269 24.6528 24.8333 23.5 24.8333H20.1667Z" fill="#FA3C12"/>
</svg>
