<svg width="14" height="14" viewBox="0 0 14 14" fill="none" xmlns="http://www.w3.org/2000/svg">
<path d="M7.80946 2.94445L11.4761 6.61112C11.5317 6.66668 11.5711 6.72686 11.5945 6.79168C11.6174 6.85649 11.6289 6.92593 11.6289 7.00001C11.6289 7.07408 11.6174 7.14353 11.5945 7.20834C11.5711 7.27316 11.5317 7.33334 11.4761 7.3889L7.80946 11.0556C7.70761 11.1574 7.58039 11.2107 7.4278 11.2156C7.27483 11.22 7.1428 11.1667 7.03168 11.0556C6.92057 10.9537 6.86261 10.8265 6.8578 10.6739C6.85335 10.5209 6.90668 10.3889 7.0178 10.2778L9.74002 7.55556H3.53168C3.37428 7.55556 3.24224 7.50242 3.13557 7.39612C3.02928 7.28945 2.97613 7.15742 2.97613 7.00001C2.97613 6.8426 3.02928 6.71075 3.13557 6.60445C3.24224 6.49779 3.37428 6.44445 3.53168 6.44445H9.74002L7.0178 3.72223C6.91594 3.62038 6.86261 3.49075 6.8578 3.33334C6.85335 3.17593 6.90668 3.0463 7.0178 2.94445C7.11965 2.83334 7.24928 2.77779 7.40668 2.77779C7.56409 2.77779 7.69835 2.83334 7.80946 2.94445Z" fill="#FA3C12"/>
</svg>
