<svg width="60" height="48" viewBox="0 0 60 48" fill="none" xmlns="http://www.w3.org/2000/svg">
<path d="M9.74809 35.8877C10.1101 35.5256 10.608 35.3145 11.1359 35.3145H59.0164C59.8914 35.3145 60.3288 36.3704 59.7103 36.9889L50.2519 46.4474C49.8899 46.8094 49.392 47.0206 48.8641 47.0206H0.98358C0.108638 47.0206 -0.328834 45.9646 0.28966 45.3461L9.74809 35.8877Z" fill="url(#paint0_linear_1_9517)"/>
<path d="M9.74809 0.573239C10.1252 0.211193 10.623 0 11.1359 0H59.0164C59.8914 0 60.3288 1.05597 59.7103 1.67446L50.2519 11.1329C49.8899 11.4949 49.392 11.7061 48.8641 11.7061H0.98358C0.108638 11.7061 -0.328834 10.6502 0.28966 10.0317L9.74809 0.573239Z" fill="url(#paint1_linear_1_9517)"/>
<path d="M50.2519 18.1174C49.8899 17.7554 49.392 17.5442 48.8641 17.5442H0.98358C0.108638 17.5442 -0.328834 18.6002 0.28966 19.2187L9.74809 28.6771C10.1101 29.0391 10.608 29.2503 11.1359 29.2503H59.0164C59.8914 29.2503 60.3288 28.1944 59.7103 27.5759L50.2519 18.1174Z" fill="url(#paint2_linear_1_9517)"/>
<defs>
<linearGradient id="paint0_linear_1_9517" x1="-108.218" y1="-8.88287" x2="-109.492" y2="55.2213" gradientUnits="userSpaceOnUse">
<stop stop-color="#00FFA3"/>
<stop offset="1" stop-color="#DC1FFF"/>
</linearGradient>
<linearGradient id="paint1_linear_1_9517" x1="-122.708" y1="-16.4474" x2="-123.982" y2="47.6567" gradientUnits="userSpaceOnUse">
<stop stop-color="#00FFA3"/>
<stop offset="1" stop-color="#DC1FFF"/>
</linearGradient>
<linearGradient id="paint2_linear_1_9517" x1="-115.509" y1="-12.6891" x2="-116.783" y2="51.4151" gradientUnits="userSpaceOnUse">
<stop stop-color="#00FFA3"/>
<stop offset="1" stop-color="#DC1FFF"/>
</linearGradient>
</defs>
</svg>
