<svg width="36" height="36" viewBox="0 0 36 36" fill="none" xmlns="http://www.w3.org/2000/svg">
<path fill-rule="evenodd" clip-rule="evenodd" d="M6.59127 2.40381L0.0269966 16.1921C-0.024275 16.2973 -0.00106168 16.4237 0.084271 16.5039L17.8128 33.4921C17.9174 33.5925 18.0826 33.5925 18.1872 33.4921L35.9157 16.505C36.0011 16.4248 36.0243 16.2984 35.973 16.1931L29.4087 2.40487C29.3655 2.3103 29.2709 2.24975 29.1669 2.25002H6.83522C6.7307 2.24872 6.63517 2.30895 6.59127 2.40381Z" fill="#50AF95"/>
<path fill-rule="evenodd" clip-rule="evenodd" d="M20.2774 17.6079C20.1501 17.6175 19.4925 17.6567 18.0257 17.6567C16.859 17.6567 16.0306 17.6217 15.74 17.6079C11.2312 17.4096 7.86583 16.6247 7.86583 15.685C7.86583 14.7453 11.2312 13.9614 15.74 13.7599V16.8262C16.0348 16.8474 16.8791 16.8973 18.0458 16.8973C19.4458 16.8973 20.1469 16.839 20.2731 16.8273V13.762C24.7724 13.9625 28.1303 14.7474 28.1303 15.685C28.1303 16.6226 24.7734 17.4075 20.2731 17.6069L20.2774 17.6079ZM20.2774 13.4449V10.7011H26.5564V6.51685H9.46102V10.7011H15.7389V13.4439C10.6362 13.6783 6.79883 14.689 6.79883 15.9003C6.79883 17.1115 10.6362 18.1213 15.7389 18.3567V27.1494H20.2763V18.3535C25.3674 18.1191 29.1984 17.1094 29.1984 15.8992C29.1984 14.689 25.3706 13.6793 20.2763 13.4439L20.2774 13.4449Z" fill="white"/>
</svg>
