<svg width="40" height="40" viewBox="0 0 40 40" fill="none" xmlns="http://www.w3.org/2000/svg">
<path d="M39.9651 19.9933C39.9651 30.9843 31.0556 39.8938 20.0646 39.8938C9.07391 39.8938 0.164062 30.9843 0.164062 19.9933C0.164062 9.00243 9.07391 0.0927734 20.0646 0.0927734C31.0556 0.0927734 39.9651 9.00243 39.9651 19.9933Z" fill="#1BA27A"/>
<path d="M29.4043 10.1279H10.5605V14.6772H17.7078V21.3638H22.2571V14.6772H29.4043V10.1279Z" fill="#FCFCFC"/>
<path d="M20.025 22.0755C14.1126 22.0755 9.31913 21.1398 9.31913 19.9853C9.31913 18.8311 14.1124 17.8952 20.025 17.8952C25.9374 17.8952 30.7307 18.8311 30.7307 19.9853C30.7307 21.1398 25.9374 22.0755 20.025 22.0755ZM32.0459 20.3338C32.0459 18.8452 26.664 17.6387 20.025 17.6387C13.3862 17.6387 8.00391 18.8452 8.00391 20.3338C8.00391 21.6446 12.1772 22.7368 17.7074 22.9788V32.5776H22.2562V22.9826C27.829 22.7481 32.0459 21.6514 32.0459 20.3338Z" fill="#FCFCFC"/>
</svg>
