<svg width="16" height="21" viewBox="0 0 16 21" fill="none" xmlns="http://www.w3.org/2000/svg">
<path d="M15.0771 8.53208C15.3856 6.43461 13.794 5.29951 11.5978 4.54688L12.3134 1.69679L10.5861 1.26496L9.89513 4.04102C9.43862 3.92998 8.96977 3.81894 8.50093 3.72023L9.19186 0.931832L7.46453 0.5L6.76126 3.33775C6.37878 3.25139 6.00864 3.16502 5.65083 3.07865V3.06632L3.25725 2.47409L2.80074 4.3248C2.80074 4.3248 4.0839 4.62091 4.05922 4.63325C4.76249 4.80598 4.88587 5.27483 4.8612 5.64497L4.04688 8.88988C4.09624 8.90222 4.15793 8.91456 4.23195 8.95157C4.17026 8.93923 4.10857 8.9269 4.04688 8.90222L2.91178 13.4426C2.82542 13.6524 2.60333 13.9732 2.12215 13.8498C2.13448 13.8745 0.863664 13.5413 0.863664 13.5413L0 15.5278L2.25786 16.0953C2.67736 16.2064 3.08451 16.3051 3.49167 16.4161L2.77606 19.2909L4.50339 19.7227L5.219 16.8726C5.68785 16.996 6.15669 17.1194 6.60086 17.2304L5.89759 20.0682L7.62492 20.5L8.34053 17.6252C11.3017 18.1804 13.5225 17.9584 14.4479 15.281C15.2005 13.1342 14.4109 11.888 12.8563 11.0737C14.0037 10.8146 14.855 10.062 15.0771 8.53208ZM11.1166 14.0842C10.5861 16.231 6.95867 15.0713 5.78655 14.7751L6.73658 10.9627C7.9087 11.2588 11.6841 11.8387 11.1166 14.0842ZM11.6595 8.49506C11.1659 10.4568 8.15546 9.45743 7.18075 9.21067L8.04442 5.75601C9.01912 6.00278 12.1653 6.45928 11.6595 8.49506Z" fill="#0B002A"/>
</svg>
