<svg width="34" height="34" viewBox="0 0 34 34" fill="none" xmlns="http://www.w3.org/2000/svg">
<path d="M14.6668 19.9999L11.0418 16.3749C10.7363 16.0694 10.3613 15.9166 9.91683 15.9166C9.47238 15.9166 9.0835 16.0833 8.75016 16.4166C8.44461 16.7221 8.29183 17.111 8.29183 17.5833C8.29183 18.0555 8.44461 18.4444 8.75016 18.7499L13.5002 23.4999C13.8057 23.8055 14.1946 23.9583 14.6668 23.9583C15.1391 23.9583 15.5279 23.8055 15.8335 23.4999L25.2918 14.0416C25.5974 13.736 25.7502 13.361 25.7502 12.9166C25.7502 12.4721 25.5835 12.0833 25.2502 11.7499C24.9446 11.4444 24.5557 11.2916 24.0835 11.2916C23.6113 11.2916 23.2224 11.4444 22.9168 11.7499L14.6668 19.9999ZM17.0002 33.6666C14.6946 33.6666 12.5279 33.2288 10.5002 32.3533C8.47239 31.4788 6.7085 30.2916 5.2085 28.7916C3.7085 27.2916 2.52127 25.5277 1.64683 23.4999C0.771274 21.4721 0.333496 19.3055 0.333496 16.9999C0.333496 14.6944 0.771274 12.5277 1.64683 10.4999C2.52127 8.47214 3.7085 6.70825 5.2085 5.20825C6.7085 3.70825 8.47239 2.52047 10.5002 1.64492C12.5279 0.770474 14.6946 0.333252 17.0002 0.333252C19.3057 0.333252 21.4724 0.770474 23.5002 1.64492C25.5279 2.52047 27.2918 3.70825 28.7918 5.20825C30.2918 6.70825 31.4791 8.47214 32.3535 10.4999C33.229 12.5277 33.6668 14.6944 33.6668 16.9999C33.6668 19.3055 33.229 21.4721 32.3535 23.4999C31.4791 25.5277 30.2918 27.2916 28.7918 28.7916C27.2918 30.2916 25.5279 31.4788 23.5002 32.3533C21.4724 33.2288 19.3057 33.6666 17.0002 33.6666Z" fill="#FA3C12"/>
</svg>
