<svg width="335" height="200" viewBox="0 0 335 200" fill="none" xmlns="http://www.w3.org/2000/svg">
<ellipse cx="164.645" cy="98.8735" rx="40.6544" ry="40.6687" fill="#FA3C12"/>
<path d="M179.178 89.6223L160.681 108.126L151.432 98.8744" stroke="#FCFCFC" stroke-width="5.67982" stroke-linecap="round" stroke-linejoin="round"/>
<path d="M219.189 22.395C219.189 22.395 238.136 12.9576 242.435 17.9041C244.796 20.6215 246.58 23.913 244.465 26.5871C242.834 28.6485 240.481 28.9113 237.723 28.427C231.883 27.4013 231.971 19.2911 234.316 14.2683C237.552 7.33331 254.735 11.4267 254.735 11.4267" stroke="#A4A4A4" stroke-width="4.96797"/>
<path d="M77.4406 39.1326C81.1228 45.5105 94.3305 44.7787 87.2169 48.8858C80.1034 52.9928 71.3516 51.1519 67.6693 44.774C63.987 38.3961 66.7687 29.8964 73.8822 25.7894C80.9958 21.6824 73.7583 32.7547 77.4406 39.1326Z" fill="#FA3C12"/>
<path d="M226.131 149.596L229.457 159.834H240.222L231.513 166.161L234.84 176.399L226.131 170.071L217.422 176.399L220.748 166.161L212.04 159.834H222.804L226.131 149.596Z" fill="#FA3C12"/>
<path d="M245.618 101.228L247.094 88.5005L257.381 95.0223L258.554 84.3449L267.938 90.8089L270.86 79.2658" stroke="#FA3C12" stroke-width="4.13998"/>
<circle cx="88.5531" cy="109.863" r="10.3714" fill="#A4A4A4"/>
<rect x="95.1816" y="169.637" width="8.8898" height="14.8163" transform="rotate(21.9911 95.1816 169.637)" fill="#FED8D0"/>
<path d="M155.784 15.7468L157.78 21.8895H164.239L159.014 25.6859L161.01 31.8286L155.784 28.0322L150.559 31.8286L152.555 25.6859L147.33 21.8895H153.788L155.784 15.7468Z" fill="#FED8D0"/>
<circle cx="159.929" cy="195.555" r="4.4449" fill="#A4A4A4"/>
<path d="M30.4679 163.08C30.4679 163.08 29.0254 154.511 33.1652 152.803C36.6431 151.368 39.6582 157.714 42.5159 155.413C45.4105 153.083 38.1846 149.392 40.5379 146.604C43.0146 143.671 50.9675 146.604 50.9675 146.604" stroke="#FA3C12" stroke-width="4.96797"/>
<path d="M300.51 119.181L327.554 164.999L308.192 171.827L300.51 119.181Z" fill="#A4A4A4"/>
<circle cx="318.315" cy="40.4337" r="10.3714" fill="#FED8D0"/>
<rect x="16.1777" y="85.7593" width="35.5592" height="11.8531" transform="rotate(-116.768 16.1777 85.7593)" fill="#FED8D0"/>
</svg>
