<svg width="15" height="21" viewBox="0 0 15 21" fill="none" xmlns="http://www.w3.org/2000/svg">
<path d="M11.1562 4.50052C11.5671 4.07677 11.8214 3.49082 11.8214 2.84381C11.8214 2.1968 11.5671 1.61085 11.1562 1.1871C10.9483 0.970201 10.6988 0.797529 10.4226 0.679456C10.1463 0.561383 9.84907 0.500343 9.54866 0.5C9.54866 0.5 8.41503 0.497266 7.27593 1.67191C6.13683 0.497266 5.0032 0.5 5.0032 0.5C4.70288 0.500382 4.40572 0.56135 4.12951 0.679256C3.8533 0.797161 3.60372 0.96958 3.3957 1.18619C2.98472 1.61085 2.73047 2.19589 2.73047 2.8429C2.73047 3.48991 2.98472 4.07677 3.3957 4.49961L7.27593 8.70152L11.1562 4.50052Z" fill="#0B002A"/>
<path d="M6.1586 13.2264C6.16433 13.5409 5.91105 13.7908 5.59664 13.7808C5.29004 13.7787 5.04018 13.5255 5.04226 13.2189C5.04782 12.482 5.34558 11.7774 5.87017 11.2599C6.39477 10.7424 7.1033 10.4542 7.84018 10.4587L10.6232 10.4776C11.36 10.4831 12.0646 10.7809 12.5821 11.3055C13.0996 11.8301 13.3878 12.5386 13.3834 13.2755C13.3778 14.0124 13.08 14.7169 12.5554 15.2344C12.0309 15.7519 11.3223 16.0401 10.5854 16.0357L9.41407 16.0277C9.74248 15.7115 10.0162 15.34 10.2156 14.9246L10.5891 14.9232C10.8082 14.9259 11.0258 14.8851 11.2291 14.8031C11.4324 14.7212 11.6174 14.5997 11.7735 14.4458C11.9296 14.2918 12.0535 14.1084 12.1382 13.9063C12.2229 13.7041 12.2667 13.4871 12.267 13.2679C12.2697 13.0487 12.2289 12.8312 12.1469 12.6279C12.065 12.4245 11.9435 12.2395 11.7895 12.0835C11.6356 11.9274 11.4522 11.8034 11.25 11.7187C11.0479 11.634 10.8309 11.5902 10.6117 11.5899L7.83656 11.5711C7.61737 11.5684 7.39982 11.6092 7.19651 11.6912C6.9932 11.7732 6.80817 11.8946 6.65212 12.0486C6.49606 12.2025 6.3721 12.3859 6.28738 12.5881C6.20267 12.7903 6.1589 13.0072 6.1586 13.2264ZM8.93751 12.6871C9.24411 12.6892 9.49398 12.9425 9.49189 13.2491C9.48634 13.9859 9.18857 14.6905 8.66398 15.208C8.13939 15.7255 7.43086 16.0137 6.69397 16.0092L3.91099 15.9904C3.17411 15.9848 2.46956 15.687 1.95204 15.1624C1.43452 14.6378 1.14635 13.9293 1.1508 13.1924C1.15635 12.4556 1.45412 11.751 1.97871 11.2335C2.5033 10.716 3.21183 10.4278 3.94872 10.4322L5.12009 10.4402C4.79167 10.7564 4.51792 11.128 4.31459 11.5472L3.9451 11.5447C3.72591 11.542 3.50836 11.5828 3.30505 11.6648C3.10174 11.7467 2.91671 11.8682 2.76065 12.0222C2.6046 12.1761 2.48063 12.3595 2.39592 12.5617C2.31121 12.7638 2.26744 12.9808 2.26714 13.2C2.26446 13.4192 2.30528 13.6367 2.38724 13.8401C2.4692 14.0434 2.59067 14.2284 2.74462 14.3845C2.89856 14.5405 3.08193 14.6645 3.28411 14.7492C3.48629 14.8339 3.70326 14.8777 3.92247 14.878L6.69759 14.8968C6.91679 14.8995 7.13433 14.8587 7.33764 14.7767C7.54095 14.6947 7.72599 14.5733 7.88204 14.4193C8.03809 14.2654 8.16206 14.082 8.24677 13.8798C8.33148 13.6777 8.37526 13.4607 8.37555 13.2415C8.37365 13.1675 8.38695 13.0939 8.41462 13.0253C8.44228 12.9567 8.48373 12.8945 8.53641 12.8425C8.58908 12.7906 8.65185 12.75 8.72085 12.7232C8.78984 12.6965 8.86358 12.6842 8.93751 12.6871Z" fill="#0B002A"/>
</svg>
