<svg width="30" height="13" viewBox="0 0 30 13" fill="none" xmlns="http://www.w3.org/2000/svg">
<path d="M23.9372 0.835938L20.0422 2.69899C20.3069 2.71171 20.9687 2.73079 20.9687 2.73079L21.3846 3.28398L24.8321 1.47179L23.9372 0.835938ZM20.5023 0.842295L16.8846 2.57182C17.2312 2.5909 18.0506 2.60361 18.3783 2.62269L21.517 1.12207L20.5023 0.842295ZM26.3385 1.52902L21.8951 3.90712L22.809 5.09617L27.5044 2.26025L26.3385 1.52902ZM8.76688 2.10765C8.57604 2.10729 8.38576 2.12862 8.19965 2.17123C3.69331 3.2204 1.03362 3.30941 0.2458 3.30941H0V10.1449C0 10.1449 0.731099 10.0368 1.9475 10.0304C4.29835 10.0304 8.43915 10.4374 12.4728 12.8155C12.6871 12.949 13.1472 12.9999 13.7207 12.9999C15.2522 12.9999 17.5779 12.6311 18.1136 12.4276C23.5086 10.3865 30.0002 4.7846 30.0002 4.7846L27.9519 2.97877C27.9519 2.97877 22.9225 6.21528 22.2859 6.52684C16.5443 9.36912 11.893 7.59508 11.893 7.59508C11.893 7.59508 19.4497 7.78584 21.8762 5.8592L20.4518 3.69729C20.4518 3.69729 15.2333 3.55104 13.3741 3.30306C12.4035 3.17588 10.3047 2.10765 8.76688 2.10765Z" fill="#109A30"/>
</svg>
