<svg width="21" height="20" viewBox="0 0 21 20" fill="none" xmlns="http://www.w3.org/2000/svg">
<path d="M6.74242 19.9204C6.19678 19.9204 5.72985 19.7263 5.34163 19.338C4.95274 18.9491 4.75829 18.4819 4.75829 17.9362C4.75829 17.3906 4.95274 16.9233 5.34163 16.5345C5.72985 16.1462 6.19678 15.9521 6.74242 15.9521C7.28805 15.9521 7.75499 16.1462 8.14321 16.5345C8.5321 16.9233 8.72655 17.3906 8.72655 17.9362C8.72655 18.4819 8.5321 18.9491 8.14321 19.338C7.75499 19.7263 7.28805 19.9204 6.74242 19.9204ZM16.6631 19.9204C16.1174 19.9204 15.6505 19.7263 15.2623 19.338C14.8734 18.9491 14.6789 18.4819 14.6789 17.9362C14.6789 17.3906 14.8734 16.9233 15.2623 16.5345C15.6505 16.1462 16.1174 15.9521 16.6631 15.9521C17.2087 15.9521 17.676 16.1462 18.0648 16.5345C18.4531 16.9233 18.6472 17.3906 18.6472 17.9362C18.6472 18.4819 18.4531 18.9491 18.0648 19.338C17.676 19.7263 17.2087 19.9204 16.6631 19.9204ZM6.74242 14.9601C5.99837 14.9601 5.4362 14.6333 5.05591 13.9799C4.67562 13.3271 4.65909 12.6783 5.00631 12.0335L6.34559 9.60291L2.77417 2.06323H1.7573C1.47622 2.06323 1.24473 1.96799 1.06286 1.77751C0.880978 1.5877 0.790039 1.35225 0.790039 1.07117C0.790039 0.79008 0.885277 0.5543 1.07575 0.363824C1.26557 0.174009 1.50102 0.0791016 1.7821 0.0791016H3.39421C3.57608 0.0791016 3.7497 0.128705 3.91504 0.227911C4.08038 0.327118 4.20439 0.46766 4.28706 0.649538L4.95671 2.06323H19.5896C20.0361 2.06323 20.342 2.22857 20.5073 2.55926C20.6726 2.88995 20.6644 3.23717 20.4825 3.60093L16.9607 9.95013C16.7788 10.2808 16.539 10.5371 16.2414 10.719C15.9438 10.9009 15.6049 10.9918 15.2246 10.9918H7.83369L6.74242 12.9759H17.6799C17.961 12.9759 18.1925 13.0708 18.3744 13.2606C18.5562 13.4511 18.6472 13.6869 18.6472 13.968C18.6472 14.2491 18.5519 14.4845 18.3615 14.6743C18.1717 14.8648 17.9362 14.9601 17.6551 14.9601H6.74242Z" fill="#FA3C12"/>
</svg>
