<svg width="24" height="19" viewBox="0 0 24 19" fill="none" xmlns="http://www.w3.org/2000/svg">
<path d="M23.1608 17.4406C23.1608 17.6379 23.0824 17.8272 22.9429 17.9667C22.8033 18.1062 22.6141 18.1846 22.4167 18.1846H1.5834C1.38607 18.1846 1.19682 18.1062 1.05728 17.9667C0.917746 17.8272 0.839355 17.6379 0.839355 17.4406C0.839355 17.2433 0.917746 17.054 1.05728 16.9145C1.19682 16.7749 1.38607 16.6965 1.5834 16.6965H22.4167C22.6141 16.6965 22.8033 16.7749 22.9429 16.9145C23.0824 17.054 23.1608 17.2433 23.1608 17.4406ZM1.6113 7.22853C1.56696 7.0726 1.57477 6.90645 1.63353 6.75535C1.69228 6.60426 1.79878 6.47649 1.93683 6.39148L11.6094 0.439101C11.7265 0.365632 11.8619 0.32666 12.0001 0.32666C12.1383 0.32666 12.2737 0.365632 12.3907 0.439101L22.0633 6.39148C22.2008 6.47666 22.3067 6.60428 22.3651 6.75505C22.4236 6.90581 22.4313 7.0715 22.3872 7.22705C22.343 7.3826 22.2494 7.51953 22.1205 7.61713C21.9916 7.71473 21.8344 7.76768 21.6727 7.76797H19.4405V13.7204H20.9286C21.126 13.7204 21.3152 13.7987 21.4548 13.9383C21.5943 14.0778 21.6727 14.2671 21.6727 14.4644C21.6727 14.6617 21.5943 14.851 21.4548 14.9905C21.3152 15.1301 21.126 15.2084 20.9286 15.2084H3.0715C2.87416 15.2084 2.68491 15.1301 2.54538 14.9905C2.40584 14.851 2.32745 14.6617 2.32745 14.4644C2.32745 14.2671 2.40584 14.0778 2.54538 13.9383C2.68491 13.7987 2.87416 13.7204 3.0715 13.7204H4.55959V7.76797H2.32745C2.16566 7.76814 2.00823 7.71557 1.879 7.61823C1.74978 7.52089 1.6558 7.38408 1.6113 7.22853ZM13.4882 12.9763C13.4882 13.1736 13.5666 13.3629 13.7061 13.5024C13.8456 13.642 14.0349 13.7204 14.2322 13.7204C14.4295 13.7204 14.6188 13.642 14.7583 13.5024C14.8979 13.3629 14.9763 13.1736 14.9763 12.9763V8.51202C14.9763 8.31468 14.8979 8.12543 14.7583 7.9859C14.6188 7.84636 14.4295 7.76797 14.2322 7.76797C14.0349 7.76797 13.8456 7.84636 13.7061 7.9859C13.5666 8.12543 13.4882 8.31468 13.4882 8.51202V12.9763ZM9.02388 12.9763C9.02388 13.1736 9.10227 13.3629 9.24181 13.5024C9.38134 13.642 9.57059 13.7204 9.76793 13.7204C9.96526 13.7204 10.1545 13.642 10.294 13.5024C10.4336 13.3629 10.512 13.1736 10.512 12.9763V8.51202C10.512 8.31468 10.4336 8.12543 10.294 7.9859C10.1545 7.84636 9.96526 7.76797 9.76793 7.76797C9.57059 7.76797 9.38134 7.84636 9.24181 7.9859C9.10227 8.12543 9.02388 8.31468 9.02388 8.51202V12.9763Z" fill="#FA3C12"/>
</svg>
