<svg width="30" height="29" viewBox="0 0 30 29" fill="none" xmlns="http://www.w3.org/2000/svg">
<path d="M12.3064 13.5008H9.44141C9.59716 12.4148 10.0241 11.3857 10.6827 10.5083L12.7077 12.5333C12.5314 12.8333 12.3945 13.1558 12.3064 13.5008ZM14.0333 11.2077L12.0083 9.18266C12.8857 8.52406 13.9148 8.09716 15.0008 7.94141V10.8064C14.6558 10.8945 14.3314 11.0314 14.0333 11.2077ZM16.8758 10.8064V7.94141C17.9617 8.09716 18.9909 8.52406 19.8683 9.18266L17.8433 11.2077C17.5413 11.029 17.2156 10.894 16.8758 10.8064ZM19.1689 12.5333L21.1939 10.5083C21.837 11.367 22.2758 12.3889 22.4352 13.5008H19.5702C19.4826 13.161 19.3475 12.8353 19.1689 12.5333ZM19.5702 15.3758H22.4352C22.2793 16.4617 21.8524 17.4909 21.1939 18.3683L19.1689 16.3433C19.3452 16.0433 19.482 15.7208 19.5702 15.3758ZM17.8433 17.6689L19.8683 19.6939C18.9909 20.3524 17.9617 20.7793 16.8758 20.9352V18.0702C17.2208 17.982 17.5452 17.8452 17.8433 17.6689ZM15.0008 18.0702V20.9352C13.9149 20.7793 12.8857 20.3524 12.0083 19.6939L14.0333 17.6689C14.3333 17.8452 14.6558 17.982 15.0008 18.0702ZM12.7077 16.3433L10.6827 18.3683C10.0241 17.4909 9.59716 16.4617 9.44141 15.3758H12.3064C12.3945 15.7208 12.5314 16.0452 12.7077 16.3433ZM14.0633 14.4383C14.0633 13.941 14.2608 13.4641 14.6125 13.1125C14.9641 12.7608 15.441 12.5633 15.9383 12.5633C16.4356 12.5633 16.9125 12.7608 17.2641 13.1125C17.6157 13.4641 17.8133 13.941 17.8133 14.4383C17.8133 14.9356 17.6157 15.4125 17.2641 15.7641C16.9125 16.1157 16.4356 16.3133 15.9383 16.3133C15.441 16.3133 14.9641 16.1157 14.6125 15.7641C14.2608 15.4125 14.0633 14.9356 14.0633 14.4383Z" fill="#0F5191"/>
<path d="M4.6875 0.375C3.94158 0.375 3.22621 0.671316 2.69876 1.19876C2.17132 1.72621 1.875 2.44158 1.875 3.1875V4.125H0.9375C0.68886 4.125 0.450403 4.22377 0.274587 4.39959C0.0987721 4.5754 0 4.81386 0 5.0625C0 5.31114 0.0987721 5.5496 0.274587 5.72541C0.450403 5.90123 0.68886 6 0.9375 6H1.875V13.5H0.9375C0.68886 13.5 0.450403 13.5988 0.274587 13.7746C0.0987721 13.9504 0 14.1889 0 14.4375C0 14.6861 0.0987721 14.9246 0.274587 15.1004C0.450403 15.2762 0.68886 15.375 0.9375 15.375H1.875V22.875H0.9375C0.68886 22.875 0.450403 22.9738 0.274587 23.1496C0.0987721 23.3254 0 23.5639 0 23.8125C0 24.0611 0.0987721 24.2996 0.274587 24.4754C0.450403 24.6512 0.68886 24.75 0.9375 24.75H1.875V25.6875C1.875 26.4334 2.17132 27.1488 2.69876 27.6762C3.22621 28.2037 3.94158 28.5 4.6875 28.5H27.1875C27.9334 28.5 28.6488 28.2037 29.1762 27.6762C29.7037 27.1488 30 26.4334 30 25.6875V3.1875C30 2.44158 29.7037 1.72621 29.1762 1.19876C28.6488 0.671316 27.9334 0.375 27.1875 0.375H4.6875ZM15.9375 6C18.1753 6 20.3214 6.88895 21.9037 8.47128C23.4861 10.0536 24.375 12.1997 24.375 14.4375C24.375 16.6753 23.4861 18.8214 21.9037 20.4037C20.3214 21.986 18.1753 22.875 15.9375 22.875C13.6997 22.875 11.5536 21.986 9.97129 20.4037C8.38895 18.8214 7.5 16.6753 7.5 14.4375C7.5 12.1997 8.38895 10.0536 9.97129 8.47128C11.5536 6.88895 13.6997 6 15.9375 6Z" fill="#0F5191"/>
</svg>
