<svg width="14" height="21" viewBox="0 0 14 21" fill="none" xmlns="http://www.w3.org/2000/svg">
<path fill-rule="evenodd" clip-rule="evenodd" d="M11.3522 15.4271C12.1151 15.3181 12.0007 14.6308 12.0011 13.9254C12.0014 13.5365 12.0336 13.309 11.7954 13.0519C11.5636 12.8018 11.3032 12.8505 10.9214 12.8505L2.41142 12.8505C1.96822 12.85 1.82418 12.823 1.58791 13.1023C1.37985 13.3482 1.42285 13.6341 1.42291 13.9901C1.42298 14.7287 1.31795 15.2817 2.07287 15.4312C2.22764 16.0442 2.31737 16.8605 2.42564 17.5049C2.54147 18.1946 2.65498 18.8905 2.77206 19.5839C2.84432 20.012 2.86848 20.2403 3.17845 20.4073C3.4335 20.5447 3.9735 20.4889 4.28809 20.4889H9.14168C9.47356 20.4889 10.0142 20.5465 10.2671 20.3914C10.5487 20.2187 10.5833 20.0041 10.6535 19.5759C10.7672 18.8822 10.8825 18.1939 10.9984 17.4999C11.1065 16.8531 11.1979 16.0441 11.3522 15.4271Z" fill="#0B002A"/>
<path fill-rule="evenodd" clip-rule="evenodd" d="M6.7913 0.521031C5.24833 0.700072 3.9504 2.07911 4.16857 3.85318C4.35429 5.36408 5.7465 6.6502 7.50503 6.43403C9.01263 6.24868 10.2998 4.84343 10.0844 3.11841C9.89498 1.60252 8.53024 0.319211 6.79137 0.520968L6.7913 0.521031Z" fill="#0B002A"/>
<path fill-rule="evenodd" clip-rule="evenodd" d="M9.59485 9.231C10.5861 9.231 11.3726 8.94175 11.9948 8.2357C12.0605 8.161 12.1345 8.09635 12.1969 8.01753C12.3763 7.79075 13.3533 6.43523 13.404 6.29863C12.2873 5.67688 10.6184 5.63083 9.45874 6.18511C8.92686 6.43935 8.47965 6.82801 8.08812 7.24108C7.90933 7.42979 7.22779 8.34666 7.13281 8.68695C7.50269 8.80465 7.82072 8.96597 8.24015 9.06607C8.71368 9.17902 9.08674 9.23107 9.59485 9.23107V9.231Z" fill="#0B002A"/>
<path fill-rule="evenodd" clip-rule="evenodd" d="M4.77182 8.61582C4.6671 8.53956 4.49143 8.3959 4.40312 8.30854C4.26577 8.17249 4.19213 8.12556 4.04965 7.98353C3.93339 7.86758 3.79779 7.78577 3.68584 7.66701C3.5443 7.51686 3.46772 7.44047 3.32993 7.31167L2.30723 6.26363C2.18535 6.10999 2.09729 6.04034 1.97205 5.86249C2.12151 5.93045 2.16419 6.04858 2.32614 6.21277L2.66937 6.54845C2.90738 6.76762 3.13898 6.99995 3.39771 7.21238L4.11912 7.84942C4.38702 8.06416 4.61243 8.30198 4.92383 8.47522C4.81531 7.03116 4.37941 5.77524 3.59797 5.03742C2.62806 4.12162 1.45658 4.241 0.0274888 3.90869C-0.0935781 4.37105 0.214894 5.49635 0.376899 5.8955C0.623651 6.50352 0.966314 6.98797 1.33563 7.33233C2.15396 8.09536 3.0936 8.46056 4.24199 8.60016C4.39114 8.61826 4.60282 8.65795 4.74903 8.62356C4.75415 8.62231 4.7647 8.61963 4.77175 8.61582H4.77182Z" fill="#0B002A"/>
<path fill-rule="evenodd" clip-rule="evenodd" d="M6.52571 7.48632C6.58849 7.20749 6.43854 6.99662 6.2477 7.24506C5.33415 8.43413 5.81703 10.5258 6.33431 11.7498C6.5855 12.3443 7.04419 11.8915 6.82127 11.3292C6.38294 10.2237 5.96537 9.31399 6.31553 8.05564C6.36864 7.86474 6.48995 7.64508 6.52571 7.48632Z" fill="#0B002A"/>
<path fill-rule="evenodd" clip-rule="evenodd" d="M7.11216 4.6025H6.00514C6.02018 4.38265 5.90679 4.23412 5.63183 4.17546L5.62109 2.30211C5.82079 2.22872 5.94593 2.10197 6.01588 1.93604L7.85697 1.94677C7.94484 2.14684 8.09224 2.24769 8.29125 2.2626L8.30916 2.68971L7.73496 2.70762L7.72416 2.42767L6.16658 2.45637L6.1953 4.10007L6.70483 4.07624C6.68411 4.01046 6.66727 3.94032 6.65422 3.86649C6.99483 3.61187 7.18342 3.47539 7.708 3.41904C7.72148 3.67434 7.68804 3.83685 7.79675 4.10869C7.92231 4.42246 8.32813 4.69224 8.32676 4.6928C7.69746 4.44911 7.62938 4.12423 7.52622 3.59727C7.38094 3.61194 7.23579 3.655 7.1179 3.7164C7.03977 3.75715 6.86465 3.88178 6.84006 3.92971C6.76212 4.08117 7.04432 4.52718 7.14511 4.58185L7.14305 4.61455C7.13256 4.61086 7.1222 4.60674 7.11203 4.60238L7.11216 4.6025ZM6.94341 4.10307H7.51892C7.57034 4.27575 7.78583 4.43944 7.91676 4.59377H7.21968C7.08457 4.4453 6.94397 4.28211 6.94341 4.10307ZM8.3924 4.65729C8.22272 4.32224 8.09798 3.98232 8.52283 3.38041C8.55778 3.33093 8.60833 3.29835 8.62674 3.23838C8.47616 3.13928 8.37119 3.06913 8.1617 3.00223C8.02434 2.95843 7.73409 2.9027 7.56285 2.95212C7.53707 3.00317 7.49046 3.05996 7.47754 3.10427C7.75031 3.05478 8.25549 3.12199 8.3861 3.27183C8.36832 3.31963 8.33418 3.36138 8.30866 3.41199C8.12038 3.74492 8.0055 4.17939 8.39254 4.65729H8.3924ZM8.33256 4.65655C8.23751 4.48992 8.06884 4.37297 8.02066 3.9581C7.9801 3.60819 8.10466 3.46204 8.16132 3.27133C7.96225 3.15195 7.23135 3.19507 7.02386 3.38403L7.00307 3.53412C7.17575 3.46354 7.26686 3.40625 7.4713 3.37049C7.6124 3.34578 7.82276 3.33018 7.93634 3.37586C7.8954 3.574 7.82521 3.67965 7.88081 3.97146C7.90278 4.08703 7.93928 4.18663 7.99176 4.28405C8.02315 4.34215 8.21211 4.58465 8.33256 4.65655Z" fill="#FCFCFC"/>
</svg>
