<svg width="19" height="20" viewBox="0 0 19 20" fill="none" xmlns="http://www.w3.org/2000/svg">
<path fill-rule="evenodd" clip-rule="evenodd" d="M9.42846 18.2035H2.73569C2.82661 16.874 2.14088 15.9764 0.479005 15.6214L0.414062 4.29606C1.62133 3.85245 2.37767 3.08613 2.80096 2.08301L13.9312 2.14795C14.462 3.35789 15.3532 3.96735 16.5565 4.05727L16.6651 6.63933L13.1938 6.74757L13.1285 5.05539L3.71249 5.22924L3.88601 15.1662L6.96663 15.0223C6.84141 14.6246 6.73916 14.2003 6.66057 13.7544C8.71975 12.2151 9.85975 11.3898 13.031 11.0491C13.1122 12.5928 12.9104 13.5749 13.5675 15.2184C14.3265 17.1154 16.78 18.7463 16.7713 18.7497C12.967 17.2763 12.5557 15.312 11.9316 12.1265C11.0534 12.2154 10.1758 12.4755 9.4631 12.8469C8.99085 13.093 7.93211 13.8467 7.78324 14.1364C7.31199 15.0519 9.01816 17.7486 9.62729 18.0789L9.61497 18.2764C9.55169 18.2541 9.48941 18.2295 9.4278 18.2032L9.42846 18.2038V18.2035ZM8.40803 15.1841H11.8876C12.1984 16.2282 13.5009 17.2177 14.2925 18.1505H10.0782C9.26161 17.253 8.41169 16.2665 8.40803 15.1841ZM17.168 18.5349C16.1422 16.5093 15.3882 14.4538 17.9563 10.815C18.1678 10.5156 18.4735 10.3191 18.5847 9.95641C17.6742 9.35727 17.0398 8.93298 15.7732 8.52867C14.9429 8.2639 13.1882 7.92687 12.1531 8.2256C11.9969 8.53466 11.7151 8.87803 11.6372 9.14546C13.2861 8.84639 16.3404 9.2527 17.1297 10.1586C17.0218 10.4476 16.8156 10.6998 16.6611 11.0058C15.5228 13.0184 14.8284 15.6451 17.168 18.5345V18.5349ZM16.8063 18.5302C16.2318 17.5228 15.2117 16.816 14.9206 14.3076C14.6755 12.1924 15.4285 11.3089 15.7709 10.1559C14.5676 9.43387 10.1488 9.69464 8.89427 10.837L8.76871 11.7445C9.81279 11.3179 10.3636 10.9719 11.5992 10.7554C12.4521 10.6062 13.724 10.5116 14.4107 10.7877C14.1633 11.9853 13.7383 12.6244 14.0747 14.3885C14.2076 15.0876 14.4281 15.6894 14.7458 16.2782C14.9356 16.6295 16.0779 18.0953 16.8063 18.5302Z" fill="#FA3C12"/>
<rect x="7.08008" width="3.33333" height="3.75" fill="#FA3C12"/>
<rect x="7.08008" y="16.25" width="3.33333" height="3.75" fill="#FA3C12"/>
</svg>
