<svg width="18" height="19" viewBox="0 0 18 19" fill="none" xmlns="http://www.w3.org/2000/svg">
<path fill-rule="evenodd" clip-rule="evenodd" d="M2.125 6.375V2.625H5.875V6.375H2.125ZM0.25 2C0.25 1.66848 0.381696 1.35054 0.616116 1.11612C0.850537 0.881696 1.16848 0.75 1.5 0.75H6.5C6.83152 0.75 7.14946 0.881696 7.38388 1.11612C7.6183 1.35054 7.75 1.66848 7.75 2V7C7.75 7.33152 7.6183 7.64946 7.38388 7.88388C7.14946 8.1183 6.83152 8.25 6.5 8.25H1.5C1.16848 8.25 0.850537 8.1183 0.616116 7.88388C0.381696 7.64946 0.25 7.33152 0.25 7V2ZM10.25 2.3125C10.25 2.06386 10.3488 1.8254 10.5246 1.64959C10.7004 1.47377 10.9389 1.375 11.1875 1.375H16.8125C17.0611 1.375 17.2996 1.47377 17.4754 1.64959C17.6512 1.8254 17.75 2.06386 17.75 2.3125C17.75 2.56114 17.6512 2.7996 17.4754 2.97541C17.2996 3.15123 17.0611 3.25 16.8125 3.25H11.1875C10.9389 3.25 10.7004 3.15123 10.5246 2.97541C10.3488 2.7996 10.25 2.56114 10.25 2.3125ZM11.1875 5.75C10.9389 5.75 10.7004 5.84877 10.5246 6.02459C10.3488 6.2004 10.25 6.43886 10.25 6.6875C10.25 6.93614 10.3488 7.1746 10.5246 7.35041C10.7004 7.52623 10.9389 7.625 11.1875 7.625H16.8125C17.0611 7.625 17.2996 7.52623 17.4754 7.35041C17.6512 7.1746 17.75 6.93614 17.75 6.6875C17.75 6.43886 17.6512 6.2004 17.4754 6.02459C17.2996 5.84877 17.0611 5.75 16.8125 5.75H11.1875ZM2.125 12.625V16.375H5.875V12.625H2.125ZM1.5 10.75C1.16848 10.75 0.850537 10.8817 0.616116 11.1161C0.381696 11.3505 0.25 11.6685 0.25 12V17C0.25 17.3315 0.381696 17.6495 0.616116 17.8839C0.850537 18.1183 1.16848 18.25 1.5 18.25H6.5C6.83152 18.25 7.14946 18.1183 7.38388 17.8839C7.6183 17.6495 7.75 17.3315 7.75 17V12C7.75 11.6685 7.6183 11.3505 7.38388 11.1161C7.14946 10.8817 6.83152 10.75 6.5 10.75H1.5ZM11.1875 11.375C10.9389 11.375 10.7004 11.4738 10.5246 11.6496C10.3488 11.8254 10.25 12.0639 10.25 12.3125C10.25 12.5611 10.3488 12.7996 10.5246 12.9754C10.7004 13.1512 10.9389 13.25 11.1875 13.25H16.8125C17.0611 13.25 17.2996 13.1512 17.4754 12.9754C17.6512 12.7996 17.75 12.5611 17.75 12.3125C17.75 12.0639 17.6512 11.8254 17.4754 11.6496C17.2996 11.4738 17.0611 11.375 16.8125 11.375H11.1875ZM11.1875 15.75C10.9389 15.75 10.7004 15.8488 10.5246 16.0246C10.3488 16.2004 10.25 16.4389 10.25 16.6875C10.25 16.9361 10.3488 17.1746 10.5246 17.3504C10.7004 17.5262 10.9389 17.625 11.1875 17.625H16.8125C17.0611 17.625 17.2996 17.5262 17.4754 17.3504C17.6512 17.1746 17.75 16.9361 17.75 16.6875C17.75 16.4389 17.6512 16.2004 17.4754 16.0246C17.2996 15.8488 17.0611 15.75 16.8125 15.75H11.1875Z" fill="#0B002A"/>
</svg>
