<svg width="20" height="18" viewBox="0 0 20 18" fill="none" xmlns="http://www.w3.org/2000/svg">
<path d="M10.0007 8.99935C9.5062 8.99935 9.02285 9.14597 8.61173 9.42068C8.2006 9.69538 7.88017 10.0858 7.69095 10.5426C7.50173 10.9995 7.45222 11.5021 7.54869 11.9871C7.64515 12.472 7.88325 12.9175 8.23288 13.2671C8.58252 13.6167 9.02797 13.8548 9.51293 13.9513C9.99788 14.0478 10.5005 13.9983 10.9574 13.809C11.4142 13.6198 11.8046 13.2994 12.0793 12.8883C12.354 12.4772 12.5007 11.9938 12.5007 11.4993C12.5007 10.8363 12.2373 10.2004 11.7684 9.73158C11.2996 9.26274 10.6637 8.99935 10.0007 8.99935ZM10.0007 12.3327C9.83583 12.3327 9.67472 12.2838 9.53768 12.1922C9.40063 12.1007 9.29383 11.9705 9.23075 11.8183C9.16768 11.666 9.15118 11.4984 9.18333 11.3368C9.21548 11.1751 9.29485 11.0266 9.4114 10.9101C9.52794 10.7935 9.67642 10.7142 9.83808 10.682C9.99973 10.6499 10.1673 10.6664 10.3196 10.7294C10.4718 10.7925 10.602 10.8993 10.6935 11.0364C10.7851 11.1734 10.834 11.3345 10.834 11.4993C10.834 11.7204 10.7462 11.9323 10.5899 12.0886C10.4336 12.2449 10.2217 12.3327 10.0007 12.3327ZM9.40899 7.09102C9.48824 7.16688 9.58169 7.22635 9.68398 7.26602C9.78374 7.3101 9.89159 7.33288 10.0007 7.33288C10.1097 7.33288 10.2176 7.3101 10.3173 7.26602C10.4196 7.22635 10.5131 7.16688 10.5923 7.09102L12.5007 5.21602C12.662 5.05468 12.7526 4.83585 12.7526 4.60768C12.7526 4.37951 12.662 4.16069 12.5007 3.99935C12.3393 3.83801 12.1205 3.74737 11.8923 3.74737C11.6641 3.74737 11.4453 3.83801 11.284 3.99935L10.834 4.49102V1.49935C10.834 1.27834 10.7462 1.06637 10.5899 0.910093C10.4336 0.753813 10.2217 0.666016 10.0007 0.666016C9.77964 0.666016 9.56768 0.753813 9.4114 0.910093C9.25512 1.06637 9.16732 1.27834 9.16732 1.49935V4.49102L8.71732 3.99935C8.55598 3.83801 8.33715 3.74737 8.10898 3.74737C7.88082 3.74737 7.66199 3.83801 7.50065 3.99935C7.33931 4.16069 7.24867 4.37951 7.24867 4.60768C7.24867 4.83585 7.33931 5.05468 7.50065 5.21602L9.40899 7.09102ZM15.834 11.4993C15.834 11.3345 15.7851 11.1734 15.6935 11.0364C15.602 10.8993 15.4718 10.7925 15.3196 10.7294C15.1673 10.6664 14.9997 10.6499 14.8381 10.682C14.6764 10.7142 14.5279 10.7935 14.4114 10.9101C14.2949 11.0266 14.2155 11.1751 14.1833 11.3368C14.1512 11.4984 14.1677 11.666 14.2308 11.8183C14.2938 11.9705 14.4006 12.1007 14.5377 12.1922C14.6747 12.2838 14.8358 12.3327 15.0007 12.3327C15.2217 12.3327 15.4336 12.2449 15.5899 12.0886C15.7462 11.9323 15.834 11.7204 15.834 11.4993ZM16.6673 5.66602H14.1673C13.9463 5.66602 13.7343 5.75381 13.5781 5.91009C13.4218 6.06637 13.334 6.27834 13.334 6.49935C13.334 6.72036 13.4218 6.93232 13.5781 7.0886C13.7343 7.24488 13.9463 7.33268 14.1673 7.33268H16.6673C16.8883 7.33268 17.1003 7.42048 17.2566 7.57676C17.4129 7.73304 17.5007 7.945 17.5007 8.16602V14.8327C17.5007 15.0537 17.4129 15.2657 17.2566 15.4219C17.1003 15.5782 16.8883 15.666 16.6673 15.666H3.33398C3.11297 15.666 2.90101 15.5782 2.74473 15.4219C2.58845 15.2657 2.50065 15.0537 2.50065 14.8327V8.16602C2.50065 7.945 2.58845 7.73304 2.74473 7.57676C2.90101 7.42048 3.11297 7.33268 3.33398 7.33268H5.83398C6.055 7.33268 6.26696 7.24488 6.42324 7.0886C6.57952 6.93232 6.66732 6.72036 6.66732 6.49935C6.66732 6.27834 6.57952 6.06637 6.42324 5.91009C6.26696 5.75381 6.055 5.66602 5.83398 5.66602H3.33398C2.67094 5.66602 2.03506 5.92941 1.56622 6.39825C1.09738 6.86709 0.833984 7.50297 0.833984 8.16602V14.8327C0.833984 15.4957 1.09738 16.1316 1.56622 16.6004C2.03506 17.0693 2.67094 17.3327 3.33398 17.3327H16.6673C17.3304 17.3327 17.9662 17.0693 18.4351 16.6004C18.9039 16.1316 19.1673 15.4957 19.1673 14.8327V8.16602C19.1673 7.50297 18.9039 6.86709 18.4351 6.39825C17.9662 5.92941 17.3304 5.66602 16.6673 5.66602ZM4.16732 11.4993C4.16732 11.6642 4.21619 11.8253 4.30776 11.9623C4.39933 12.0994 4.52948 12.2062 4.68175 12.2692C4.83402 12.3323 5.00158 12.3488 5.16323 12.3167C5.32488 12.2845 5.47336 12.2051 5.58991 12.0886C5.70645 11.9721 5.78582 11.8236 5.81797 11.6619C5.85013 11.5003 5.83362 11.3327 5.77055 11.1804C5.70748 11.0282 5.60067 10.898 5.46363 10.8065C5.32659 10.7149 5.16547 10.666 5.00065 10.666C4.77964 10.666 4.56768 10.7538 4.4114 10.9101C4.25512 11.0664 4.16732 11.2783 4.16732 11.4993Z" fill="#FCFCFC"/>
</svg>
