<svg width="18" height="17" viewBox="0 0 18 17" fill="none" xmlns="http://www.w3.org/2000/svg">
<path d="M10.5626 16.8332H7.43762C7.22928 16.8332 7.04873 16.7637 6.89595 16.6248C6.74317 16.4859 6.6529 16.3123 6.62512 16.104L6.37512 14.1665C6.19456 14.0971 6.02456 14.0137 5.86512 13.9165C5.70512 13.8193 5.54873 13.7151 5.39595 13.604L3.58345 14.354C3.38901 14.4234 3.19456 14.4304 3.00012 14.3748C2.80567 14.3193 2.6529 14.2012 2.54178 14.0207L1.00012 11.3332C0.889007 11.1526 0.854285 10.9582 0.895952 10.7498C0.937618 10.5415 1.04179 10.3748 1.20845 10.2498L2.77095 9.06234C2.75706 8.96511 2.75012 8.87123 2.75012 8.78067V8.21817C2.75012 8.12817 2.75706 8.03456 2.77095 7.93734L1.20845 6.74984C1.04179 6.62484 0.937618 6.45817 0.895952 6.24984C0.854285 6.0415 0.889007 5.84706 1.00012 5.6665L2.54178 2.979C2.63901 2.78456 2.78817 2.66289 2.98929 2.614C3.19095 2.56567 3.38901 2.57623 3.58345 2.64567L5.39595 3.39567C5.54873 3.28456 5.70845 3.18039 5.87512 3.08317C6.04178 2.98595 6.20845 2.90261 6.37512 2.83317L6.62512 0.895671C6.6529 0.687337 6.74317 0.513726 6.89595 0.374837C7.04873 0.235948 7.22928 0.166504 7.43762 0.166504H10.5626C10.771 0.166504 10.9515 0.235948 11.1043 0.374837C11.2571 0.513726 11.3473 0.687337 11.3751 0.895671L11.6251 2.83317C11.8057 2.90261 11.976 2.98595 12.136 3.08317C12.2954 3.18039 12.4515 3.28456 12.6043 3.39567L14.4168 2.64567C14.6112 2.57623 14.8057 2.56928 15.0001 2.62484C15.1946 2.68039 15.3473 2.79845 15.4585 2.979L17.0001 5.6665C17.1112 5.84706 17.146 6.0415 17.1043 6.24984C17.0626 6.45817 16.9585 6.62484 16.7918 6.74984L15.2293 7.93734C15.2432 8.03456 15.2501 8.12817 15.2501 8.21817V8.78067C15.2501 8.87123 15.2362 8.96511 15.2085 9.06234L16.771 10.2498C16.9376 10.3748 17.0418 10.5415 17.0835 10.7498C17.1251 10.9582 17.0904 11.1526 16.9793 11.3332L15.4376 13.9998C15.3265 14.1804 15.1704 14.3021 14.9693 14.3648C14.7676 14.4271 14.5696 14.4234 14.3751 14.354L12.6043 13.604C12.4515 13.7151 12.2918 13.8193 12.1251 13.9165C11.9585 14.0137 11.7918 14.0971 11.6251 14.1665L11.3751 16.104C11.3473 16.3123 11.2571 16.4859 11.1043 16.6248C10.9515 16.7637 10.771 16.8332 10.5626 16.8332ZM9.04179 11.4165C9.84734 11.4165 10.5348 11.1318 11.1043 10.5623C11.6737 9.99289 11.9585 9.30539 11.9585 8.49984C11.9585 7.69428 11.6737 7.00678 11.1043 6.43734C10.5348 5.86789 9.84734 5.58317 9.04179 5.58317C8.22234 5.58317 7.53123 5.86789 6.96845 6.43734C6.40623 7.00678 6.12512 7.69428 6.12512 8.49984C6.12512 9.30539 6.40623 9.99289 6.96845 10.5623C7.53123 11.1318 8.22234 11.4165 9.04179 11.4165Z" fill="#0B002A"/>
</svg>
