<svg width="30" height="31" viewBox="0 0 30 31" fill="none" xmlns="http://www.w3.org/2000/svg">
<path d="M29.018 16.1787L26.0781 2.90666C25.97 2.42141 25.6739 1.99884 25.2546 1.73166C24.8354 1.46448 24.3273 1.37451 23.8418 1.48148L10.5699 4.42137C10.3295 4.47462 10.1019 4.57471 9.90018 4.71591C9.69844 4.85712 9.5265 5.03668 9.39416 5.24434C9.26182 5.452 9.17169 5.6837 9.1289 5.92619C9.08611 6.16869 9.09151 6.41724 9.14478 6.65766L10.3765 12.2182H2.8125C2.31539 12.2188 1.8388 12.4165 1.48729 12.768C1.13578 13.1195 0.938058 13.5961 0.9375 14.0932V27.687C0.938058 28.1841 1.13578 28.6607 1.48729 29.0122C1.8388 29.3637 2.31539 29.5614 2.8125 29.562H16.4062C16.9034 29.5614 17.3799 29.3637 17.7315 29.0122C18.083 28.6607 18.2807 28.1841 18.2812 27.687V20.4774L27.5928 18.4149C28.078 18.3068 28.5006 18.0107 28.7678 17.5915C29.0349 17.1722 29.1249 16.6642 29.018 16.1787ZM16.4062 27.687H2.8125V14.0932H10.7919L12.0846 19.9295C12.1769 20.3456 12.4081 20.7179 12.7402 20.9851C13.0722 21.2523 13.4853 21.3985 13.9116 21.3997C14.0492 21.3996 14.1864 21.3845 14.3208 21.3547L16.4067 20.8926L16.4074 27.687H16.4062ZM27.1875 16.5842L13.9153 19.524L10.9754 6.25195L24.2475 3.31195L27.1885 16.5837L27.1875 16.5842Z" fill="#F7990D"/>
<path d="M4.6875 15.9674H7.03125V18.3112H4.6875V15.9674ZM4.6875 23.4674H7.03125V25.8112H4.6875V23.4674ZM12.1875 23.4674H14.5312V25.8112H12.1875V23.4674ZM8.4375 19.7174H10.7812V22.0612H8.4375V19.7174ZM13.2103 7.68031L15.4986 7.17383L16.0051 9.46221L13.7168 9.96869L13.2103 7.68031ZM22.1559 13.377L24.4443 12.8701L24.9511 15.1585L22.6628 15.6653L22.1559 13.377ZM17.6838 10.5264L19.9721 10.0196L20.4789 12.3079L18.1907 12.8147L17.6838 10.5264Z" fill="#F0C88C"/>
</svg>
