<svg width="16" height="17" viewBox="0 0 16 17" fill="none" xmlns="http://www.w3.org/2000/svg">
<path d="M3 16.8332C2.30556 16.8332 1.71528 16.5901 1.22917 16.104C0.743056 15.6179 0.5 15.0276 0.5 14.3332V11.8332H3V0.166504L4.25 1.4165L5.5 0.166504L6.75 1.4165L8 0.166504L9.25 1.4165L10.5 0.166504L11.75 1.4165L13 0.166504L14.25 1.4165L15.5 0.166504V14.3332C15.5 15.0276 15.2569 15.6179 14.7708 16.104C14.2847 16.5901 13.6944 16.8332 13 16.8332H3ZM13 15.1665C13.2361 15.1665 13.4339 15.0865 13.5933 14.9265C13.7533 14.7671 13.8333 14.5693 13.8333 14.3332V2.6665H4.66667V11.8332H12.1667V14.3332C12.1667 14.5693 12.2467 14.7671 12.4067 14.9265C12.5661 15.0865 12.7639 15.1665 13 15.1665ZM5.5 5.99984V4.33317H10.5V5.99984H5.5ZM5.5 8.49984V6.83317H10.5V8.49984H5.5ZM12.1667 5.99984C11.9306 5.99984 11.7328 5.91984 11.5733 5.75984C11.4133 5.60039 11.3333 5.40262 11.3333 5.1665C11.3333 4.93039 11.4133 4.73234 11.5733 4.57234C11.7328 4.41289 11.9306 4.33317 12.1667 4.33317C12.4028 4.33317 12.6006 4.41289 12.76 4.57234C12.92 4.73234 13 4.93039 13 5.1665C13 5.40262 12.92 5.60039 12.76 5.75984C12.6006 5.91984 12.4028 5.99984 12.1667 5.99984ZM12.1667 8.49984C11.9306 8.49984 11.7328 8.41984 11.5733 8.25984C11.4133 8.10039 11.3333 7.90261 11.3333 7.6665C11.3333 7.43039 11.4133 7.23234 11.5733 7.07234C11.7328 6.91289 11.9306 6.83317 12.1667 6.83317C12.4028 6.83317 12.6006 6.91289 12.76 7.07234C12.92 7.23234 13 7.43039 13 7.6665C13 7.90261 12.92 8.10039 12.76 8.25984C12.6006 8.41984 12.4028 8.49984 12.1667 8.49984Z" fill="#0B002A"/>
</svg>
